<?xml version="1.0" encoding="UTF-8"?>
<svg version="1.1" xmlns="http://www.w3.org/2000/svg" width="1000" height="1000">
<path d="M0 0 C330 0 660 0 1000 0 C1000 330 1000 660 1000 1000 C670 1000 340 1000 0 1000 C0 670 0 340 0 0 Z " fill="#FEFEFE" transform="translate(0,0)"/>
<path d="M0 0 C15.54771965 11.94308074 23.85482653 29.59703471 26.52320671 48.70929146 C26.97493833 53.39231699 26.86317562 58.10032396 26.84790039 62.80053711 C26.84804642 63.98174133 26.84819244 65.16294556 26.8483429 66.37994385 C26.84776782 69.6005186 26.84277106 72.82104924 26.83576894 76.04161525 C26.82949489 79.41418053 26.8289284 82.78674679 26.82774353 86.15931702 C26.82464212 92.53750788 26.81644485 98.9156815 26.80639404 105.29386479 C26.79519585 112.55869907 26.78971313 119.8235342 26.78469861 127.08837497 C26.77426119 142.02507366 26.75593058 156.96174995 26.734375 171.8984375 C17.494375 171.8984375 8.254375 171.8984375 -1.265625 171.8984375 C-1.925625 161.6684375 -2.585625 151.4384375 -3.265625 140.8984375 C-5.245625 144.1984375 -7.225625 147.4984375 -9.265625 150.8984375 C-18.95480705 164.14096688 -33.35809582 172.55752541 -49.3671875 175.4609375 C-71.83192918 177.98203076 -93.93928883 175.97431385 -112.515625 162.2109375 C-123.06515228 153.30659374 -130.14060504 140.5904197 -131.47265625 126.74682617 C-131.56830488 124.5222482 -131.59490376 122.31247943 -131.578125 120.0859375 C-131.56966553 118.90245728 -131.56966553 118.90245728 -131.56103516 117.69506836 C-131.29670867 104.92495834 -126.77207773 92.98316796 -117.99609375 83.5078125 C-95.20463679 62.31124305 -64.49476893 62.57040528 -35.35327148 62.7611084 C-31.83970572 62.78185861 -28.32610985 62.79076339 -24.8125 62.80078125 C-17.96346946 62.82199631 -11.11455595 62.85596396 -4.265625 62.8984375 C-4.7068282 59.35257711 -5.1644562 55.80902107 -5.625 52.265625 C-5.8113501 50.7655188 -5.8113501 50.7655188 -6.00146484 49.23510742 C-6.9056393 42.36281291 -8.09441465 36.58439633 -12.265625 30.8984375 C-12.79285156 30.17785156 -13.32007813 29.45726562 -13.86328125 28.71484375 C-21.67267441 19.01981124 -32.20604743 14.99161969 -44.39990234 13.66650391 C-58.12097156 12.68265886 -71.16374838 15.33955484 -82.265625 23.8984375 C-89.90460206 31.03432768 -93.42399858 37.95274502 -96.265625 47.8984375 C-106.495625 47.8984375 -116.725625 47.8984375 -127.265625 47.8984375 C-125.67001642 30.34674313 -119.71680052 17.55759786 -106.265625 5.8984375 C-76.71724977 -17.76942226 -31.90199883 -20.53023369 0 0 Z " fill="#040335" transform="translate(313.265625,452.1015625)"/>
<path d="M0 0 C2.58109857 2.24907364 5.04622231 4.57364642 7.48828125 6.97265625 C8.25140625 7.71128906 9.01453125 8.44992187 9.80078125 9.2109375 C30.59259255 30.6885898 31.48828125 55.71978662 31.48828125 84.97265625 C-15.70171875 84.97265625 -62.89171875 84.97265625 -111.51171875 84.97265625 C-108.5838049 105.46805321 -103.92312743 122.69285127 -87.01171875 135.66015625 C-72.223658 145.22101728 -56.49805311 147.43629062 -39.15039062 144.58447266 C-26.20192827 141.73450061 -16.67320889 134.54864516 -9.265625 123.78125 C-7.25783167 120.56609765 -5.39236929 117.2637947 -3.51171875 113.97265625 C6.38828125 113.97265625 16.28828125 113.97265625 26.48828125 113.97265625 C20.25390687 134.75390419 7.81675384 152.45142765 -11.51171875 162.97265625 C-32.11725235 173.4062057 -58.44090502 176.03398939 -80.65625 169.36328125 C-102.81255688 161.78364091 -119.85181465 147.06537987 -131.51171875 126.97265625 C-132.01574219 126.13089844 -132.51976562 125.28914062 -133.0390625 124.421875 C-145.7105657 101.50532666 -145.15895631 69.52428554 -138.51171875 44.97265625 C-133.86227143 29.5020753 -125.85649557 17.2189256 -114.51171875 5.97265625 C-113.81691406 5.24433594 -113.12210937 4.51601563 -112.40625 3.765625 C-84.20626263 -23.88890807 -30.34667007 -24.49443509 0 0 Z " fill="#030234" transform="translate(616.51171875,456.02734375)"/>
<path d="M0 0 C4.55273627 -0.27382288 9.10060921 -0.47230307 13.65966797 -0.60424805 C15.20641581 -0.65927006 16.75259903 -0.73412755 18.29736328 -0.82983398 C31.08400613 -1.60165523 31.08400613 -1.60165523 35.66967773 2.23168945 C37.73818992 5.05950734 39.39205625 7.89062496 41 11 C41.84708053 12.28473369 42.71075306 13.55883367 43.59765625 14.81640625 C44.42116381 16.06385657 45.24268699 17.31261855 46.0625 18.5625 C51.73129275 27.12638489 57.46217908 35.64782645 63.21090698 44.15817261 C64.22513073 45.66019227 65.23859741 47.16272345 66.25125122 48.665802 C72.01881957 57.22560298 77.84515507 65.71181571 84 74 C84.74552124 72.90051025 84.74552124 72.90051025 85.50610352 71.77880859 C87.42439339 68.95002046 89.3428843 66.12136894 91.26156616 63.29284668 C92.13060375 62.01170477 92.99960181 60.73053604 93.86856079 59.44934082 C98.25041256 52.98918013 102.63351412 46.52997402 107.0390625 40.0859375 C107.64790283 39.19165039 108.25674316 38.29736328 108.8840332 37.37597656 C110.08958802 35.62060259 111.30963636 33.87509773 112.54370117 32.13964844 C115.91782887 27.34171985 118.76289723 22.58717752 121.32421875 17.3046875 C129.46084915 1.49507188 129.46084915 1.49507188 135.86975098 -0.61584473 C146.02820064 -2.70674164 156.83038394 -1.395549 167 0 C161.19228763 11.83736564 152.47216636 22.54012406 144.94921875 33.328125 C141.78117302 37.87302612 138.6314544 42.42983433 135.5 47 C131.67379062 52.58411796 127.81432384 58.14430748 123.94091797 63.69580078 C121.86020687 66.68154244 119.78706064 69.6724217 117.71484375 72.6640625 C115.55019107 75.78671471 113.36652231 78.89020976 111.12890625 81.9609375 C110.01322266 83.52714844 110.01322266 83.52714844 108.875 85.125 C108.25367188 85.97320313 107.63234375 86.82140625 106.9921875 87.6953125 C105.75481041 89.95786799 105.75481041 89.95786799 106.5 92.34375 C108.48810313 95.86434929 110.75110252 99.10527754 113.125 102.375 C114.21702336 103.90041384 115.30812035 105.42649115 116.3984375 106.953125 C116.98206055 107.76845703 117.56568359 108.58378906 118.16699219 109.42382812 C121.39824615 113.96514296 124.57208724 118.54627633 127.75 123.125 C129.1171818 125.09245188 130.48436937 127.05989975 131.8515625 129.02734375 C132.53637695 130.01331543 133.22119141 130.99928711 133.92675781 132.01513672 C136.65475286 135.94265291 139.3839165 139.86935492 142.11401367 143.79541016 C143.4453854 145.71011569 144.77628415 147.62515019 146.10668945 149.54052734 C149.41536052 154.30051399 152.73677816 159.05079303 156.08203125 163.78515625 C156.73091309 164.70530518 157.37979492 165.6254541 158.04833984 166.57348633 C159.27857221 168.316448 160.51182104 170.05728573 161.74853516 171.7956543 C162.29429199 172.56949463 162.84004883 173.34333496 163.40234375 174.140625 C163.88179443 174.81641602 164.36124512 175.49220703 164.85522461 176.18847656 C166 178 166 178 167 181 C162.44735791 181.29870969 157.90049606 181.51520482 153.34033203 181.65917969 C151.79342303 181.71920996 150.24718627 181.80088093 148.70263672 181.90527344 C143.57820976 182.24271149 139.00256121 182.27497629 134 181 C130.19600787 177.5465025 128.25113444 173.56598663 126 169 C124.8531751 167.24202348 123.67579585 165.50349647 122.46484375 163.7890625 C121.89088867 162.94811035 121.31693359 162.1071582 120.72558594 161.24072266 C120.13551758 160.37753418 119.54544922 159.5143457 118.9375 158.625 C117.62887699 156.70835331 116.32028413 154.79168604 115.01171875 152.875 C114.34962402 151.905625 113.6875293 150.93625 113.00537109 149.9375 C111.02923052 147.04281734 109.05521123 144.14670142 107.08203125 141.25 C106.44539551 140.31559082 105.80875977 139.38118164 105.15283203 138.41845703 C103.89424298 136.57078241 102.63609768 134.72280543 101.37841797 132.87451172 C98.4761844 128.61342444 95.5626036 124.36147379 92.61328125 120.1328125 C92.09540039 119.38821777 91.57751953 118.64362305 91.04394531 117.87646484 C90.08247604 116.496373 89.11719747 115.11892426 88.14746094 113.74462891 C85 109.22212249 85 109.22212249 85 107 C81.59249156 110.25215426 78.82113135 113.47259438 76.2421875 117.41015625 C75.54351563 118.46887939 74.84484375 119.52760254 74.125 120.6184082 C73.57585937 121.45911362 73.57585937 121.45911362 73.015625 122.31680298 C71.04089842 125.33907086 69.04582645 128.34790642 67.0546875 131.359375 C66.64192566 131.98491776 66.22916382 132.61046051 65.80389404 133.25495911 C62.87456974 137.69120292 59.91989249 142.10960872 56.9453125 146.515625 C56.53416199 147.12572922 56.12301147 147.73583344 55.69940186 148.36442566 C53.6613208 151.3818473 51.6060055 154.38499215 49.515625 157.36645508 C44.05361225 165.17695487 44.05361225 165.17695487 40.03466797 173.78686523 C38.22645187 176.84788959 35.99040731 179.12531693 33 181 C30.13530162 181.5596276 27.92075708 181.81602407 25.0625 181.8203125 C24.32556915 181.83998077 23.58863831 181.85964905 22.82937622 181.87991333 C15.20413636 182.02265641 7.59942207 181.58815054 0 181 C4.3118794 174.12358091 8.74743079 167.37371242 13.4375 160.75 C14.66179757 159.0106554 15.88574138 157.27106175 17.109375 155.53125 C17.74294922 154.63148438 18.37652344 153.73171875 19.02929688 152.8046875 C22.43071608 147.96381735 25.80957109 143.10727866 29.1875 138.25 C29.86522461 137.27546875 30.54294922 136.3009375 31.24121094 135.296875 C37.62843009 126.10714891 37.62843009 126.10714891 43.96264648 116.88085938 C46.47054053 113.20560433 49.01704573 109.56217432 51.59765625 105.9375 C52.20456299 105.07543945 52.81146973 104.21337891 53.43676758 103.32519531 C54.62312252 101.64030613 55.81923062 99.96223177 57.02612305 98.29199219 C57.55890869 97.53047852 58.09169434 96.76896484 58.640625 95.984375 C59.12047852 95.31116211 59.60033203 94.63794922 60.09472656 93.94433594 C61.17847503 92.04958119 61.17847503 92.04958119 60.79614258 89.98461914 C59.93990183 87.85018766 58.93503198 86.1495221 57.62109375 84.26171875 C57.12013184 83.53573486 56.61916992 82.80975098 56.10302734 82.06176758 C55.55340332 81.27825928 55.0037793 80.49475098 54.4375 79.6875 C53.86467285 78.86080811 53.2918457 78.03411621 52.70166016 77.18237305 C50.80687962 74.45085378 48.90360769 71.72537337 47 69 C45.65446256 67.06544166 44.30941703 65.13054108 42.96484375 63.1953125 C40.23692189 59.27035542 37.50604433 55.34747772 34.7734375 51.42578125 C31.23981997 46.35049335 27.73082366 41.25887486 24.23754883 36.15576172 C21.48363775 32.1391043 18.7036955 28.14156127 15.91015625 24.15234375 C14.83314453 22.61223633 14.83314453 22.61223633 13.734375 21.04101562 C12.31893374 19.01841117 10.90108132 16.99749127 9.48046875 14.97851562 C6.06652155 10.09711089 2.84038732 5.23764517 0 0 Z " fill="#040335" transform="translate(662,443)"/>
<path d="M0 0 C5.5138182 2.37953751 8.4040599 5.9479939 10.8046875 11.38671875 C11.47348695 14.79381588 11.47741236 18.09392933 11.43287659 21.55810547 C11.43997097 22.55568312 11.44706536 23.55326077 11.45437473 24.58106804 C11.47191832 27.90991094 11.45386755 31.23758064 11.43579102 34.56640625 C11.44093119 36.95852183 11.4482132 39.35063363 11.45747375 41.74273682 C11.47406239 47.55711713 11.46736199 53.37112464 11.44938553 59.18549395 C11.43533724 63.91256614 11.4314715 68.63954711 11.4348278 73.36663818 C11.43530525 74.04043262 11.43578269 74.71422706 11.4362746 75.40843952 C11.43730097 76.77740942 11.43835633 78.14637929 11.43944036 79.51534915 C11.44800028 91.60990939 11.43135556 103.70430737 11.40161133 115.79882812 C11.3727756 127.52415787 11.36569126 139.24925389 11.38110352 150.97460938 C11.39787949 163.75488637 11.40188568 176.5350525 11.38439316 189.31533241 C11.38254884 190.6791547 11.38071412 192.042977 11.37888908 193.40679932 C11.37797699 194.07775662 11.3770649 194.74871393 11.37612518 195.44000328 C11.37052844 200.15921966 11.37381888 204.87838178 11.38043404 209.59759521 C11.38809993 215.95394541 11.37596012 222.30995928 11.34858513 228.66625214 C11.34170352 230.99787142 11.34160089 233.32952212 11.34880066 235.66114044 C11.35750196 238.84624524 11.34152655 242.03031376 11.3193512 245.21533203 C11.33171235 246.59627957 11.33171235 246.59627957 11.34432322 248.00512505 C11.25146596 255.24146542 9.45896724 260.59274008 4.4296875 265.88671875 C-1.40294644 268.30022245 -6.99562452 268.44589096 -13.1953125 267.38671875 C-18.40471296 264.60318836 -21.4535598 261.00721389 -23.1953125 255.38671875 C-23.4917935 252.11216938 -23.47367336 248.84878873 -23.46273804 245.56263733 C-23.46726915 244.56621182 -23.47180026 243.56978632 -23.47646868 242.5431661 C-23.48914 239.20068678 -23.48749054 235.85836984 -23.48583984 232.51586914 C-23.49182331 230.12095428 -23.49862843 227.72604136 -23.50619507 225.33113098 C-23.52204183 219.4990813 -23.52830416 213.66708097 -23.52941982 207.83501083 C-23.53037059 203.09451938 -23.53448232 198.35404124 -23.54082108 193.613554 C-23.55842971 180.17112503 -23.56766035 166.72872797 -23.56616013 153.28628737 C-23.56608022 152.56186381 -23.5660003 151.83744025 -23.56591797 151.09106445 C-23.56583621 150.36575582 -23.56575445 149.64044718 -23.56567021 148.8931595 C-23.56485706 137.13486412 -23.58400288 125.37669677 -23.6121947 113.61843843 C-23.64091862 101.54292951 -23.65473532 89.46748305 -23.65300715 77.3919391 C-23.65234315 70.61326371 -23.6578398 63.83472258 -23.67936325 57.05607796 C-23.6986923 50.68257731 -23.69890647 44.30936066 -23.68432999 37.93585014 C-23.68223429 35.59531618 -23.68698778 33.25476468 -23.6990509 30.91426086 C-23.71444101 27.72176557 -23.70523585 24.5302572 -23.68978882 21.33778381 C-23.70007594 20.40928008 -23.71036307 19.48077634 -23.72096193 18.52413613 C-23.65011216 11.90864487 -22.28440787 8.49798466 -17.5625 3.7421875 C-11.78898728 -0.77687088 -7.23672081 -2.0216462 0 0 Z " fill="#515F8D" transform="translate(416.1953125,360.61328125)"/>
<path d="M0 0 C1.35476979 0.00373811 2.70954232 0.0065813 4.0643158 0.00857544 C7.60049123 0.01614918 11.13649789 0.03574246 14.67260742 0.0579834 C18.29278278 0.07857807 21.91298586 0.08760605 25.53320312 0.09765625 C32.61465166 0.11899542 39.69598659 0.15305405 46.77734375 0.1953125 C46.79631123 1.95121124 46.80982472 3.70716944 46.82104492 5.46313477 C46.83321297 6.92989403 46.83321297 6.92989403 46.84562683 8.42628479 C46.51667538 21.76598302 39.54322449 36.38812843 30.77734375 46.1953125 C30.23207031 46.82179688 29.68679688 47.44828125 29.125 48.09375 C20.34009199 57.56078027 8.54009157 62.82249999 -4.30078125 63.578125 C-16.82497845 63.99199933 -28.42175035 63.19043487 -38.47265625 54.8984375 C-44.59674447 48.93838736 -48.23214837 43.05445772 -48.47265625 34.3828125 C-48.20217373 23.14088285 -44.64012937 15.89467294 -36.55859375 8.0234375 C-32.540496 4.87883926 -28.10972372 3.47904154 -23.22265625 2.1953125 C-21.96904297 1.85306641 -20.71542969 1.51082031 -19.42382812 1.15820312 C-12.9896036 -0.25402069 -6.55723343 -0.05255857 0 0 Z " fill="#FDFDFD" transform="translate(262.22265625,538.8046875)"/>
<path d="M0 0 C9.77911327 7.54658259 16.3825398 16.8467854 19.4296875 28.875 C19.9246875 35.31 19.9246875 35.31 20.4296875 41.875 C-16.8603125 41.875 -54.1503125 41.875 -92.5703125 41.875 C-92.5703125 30.31828134 -88.75099177 19.94726485 -81.5703125 10.875 C-80.97476563 10.06289063 -80.37921875 9.25078125 -79.765625 8.4140625 C-60.14970211 -14.27339279 -23.8350479 -16.40869766 0 0 Z " fill="#FDFDFD" transform="translate(597.5703125,475.125)"/>
</svg>
